<svg id="Layer_1" data-name="Layer 1" xmlns="http://www.w3.org/2000/svg" viewBox="0 0 512 512"><defs><style>.cls-1{fill:#50b9ff;}.cls-2{fill:#ffcf99;}.cls-3{fill:#d39f75;}.cls-4{opacity:0.06;}</style></defs><title>sim-card-flat</title><path class="cls-1" d="M459.49,122v330.9A59.17,59.17,0,0,1,400.41,512H111.59a59.17,59.17,0,0,1-59.08-59.08V59.08A59.17,59.17,0,0,1,111.59,0H337.46Z"/><rect class="cls-2" x="131.28" y="183.79" width="249.44" height="249.44" rx="39.38" ry="39.38"/><polygon class="cls-3" points="301.95 433.23 288.82 433.23 288.82 183.79 301.95 183.79 301.95 262.56 380.72 262.56 380.72 275.69 301.95 275.69 301.95 341.33 380.72 341.33 380.72 354.46 301.95 354.46 301.95 433.23"/><polygon class="cls-3" points="223.18 433.23 210.05 433.23 210.05 354.46 131.28 354.46 131.28 341.33 210.05 341.33 210.05 275.69 131.28 275.69 131.28 262.56 223.18 262.56 223.18 433.23"/><g class="cls-4"><path d="M459.49,122v330.9A59.17,59.17,0,0,1,400.41,512H256V0h81.46Z"/></g></svg>